<?xml version="1.0" encoding="UTF-8"?><svg id="a" xmlns="http://www.w3.org/2000/svg" viewBox="0 0 525.38 154.89"><g><path d="M155.03,58.45c0-.61,.55-1.16,1.16-1.16h5.8c.67,0,1.16,.55,1.16,1.16v24.99c0,5.19,3.54,9.29,8.86,9.29s8.92-4.09,8.92-9.22v-25.05c0-.61,.49-1.16,1.16-1.16h5.8c.61,0,1.16,.55,1.16,1.16v25.42c0,9.29-7.39,16.8-17.05,16.8s-16.98-7.52-16.98-16.8v-25.42Z" style="fill:#262625;"/><path d="M205.01,57.77c0-.61,.55-1.1,1.16-1.1h1.53l25.42,27h.06v-25.23c0-.61,.49-1.16,1.16-1.16h5.62c.61,0,1.16,.55,1.16,1.16v41.12c0,.61-.55,1.1-1.16,1.1h-1.47l-25.54-28.04h-.06v26.27c0,.61-.49,1.16-1.16,1.16h-5.56c-.61,0-1.16-.55-1.16-1.16V57.77Z" style="fill:#262625;"/><path d="M258.46,58.45c0-.61,.55-1.16,1.16-1.16h5.68c.61,0,1.16,.55,1.16,1.16v40.45c0,.61-.55,1.16-1.16,1.16h-5.68c-.61,0-1.16-.55-1.16-1.16V58.45Z" style="fill:#262625;"/><path d="M284.06,58.45c0-.61,.49-1.16,1.16-1.16h5.62c.61,0,1.16,.55,1.16,1.16v34.27h15.58c.67,0,1.16,.55,1.16,1.16v5.01c0,.61-.49,1.16-1.16,1.16h-22.36c-.67,0-1.16-.55-1.16-1.16V58.45Z" style="fill:#262625;"/><path d="M321.99,58.45c0-.61,.49-1.16,1.16-1.16h24.87c.67,0,1.16,.55,1.16,1.16v5.01c0,.61-.49,1.16-1.16,1.16h-18.08v10.02h15.09c.61,0,1.16,.55,1.16,1.16v5.07c0,.67-.55,1.16-1.16,1.16h-15.09v10.69h18.08c.67,0,1.16,.55,1.16,1.16v5.01c0,.61-.49,1.16-1.16,1.16h-24.87c-.67,0-1.16-.55-1.16-1.16V58.45Z" style="fill:#262625;"/><path d="M360.85,98.46l19-41.12c.18-.37,.49-.67,1.04-.67h.61c.61,0,.86,.31,1.04,.67l18.82,41.12c.37,.79-.12,1.59-1.04,1.59h-5.31c-.92,0-1.34-.37-1.77-1.22l-2.99-6.6h-18.27l-2.99,6.6c-.24,.61-.79,1.22-1.77,1.22h-5.32c-.92,0-1.4-.79-1.04-1.59Zm26.39-13.01l-6.11-13.44h-.18l-5.99,13.44h12.28Z" style="fill:#262625;"/><path d="M412.66,94.07l2.2-3.79c.49-.85,1.53-.85,2.08-.43,.31,.18,5.25,3.79,9.22,3.79,3.18,0,5.56-2.08,5.56-4.7,0-3.12-2.63-5.25-7.76-7.33-5.74-2.32-11.49-5.99-11.49-13.2,0-5.44,4.03-11.73,13.75-11.73,6.23,0,11,3.18,12.22,4.09,.61,.37,.79,1.41,.37,2.02l-2.32,3.48c-.49,.73-1.41,1.22-2.14,.73-.49-.31-5.13-3.36-8.49-3.36s-5.38,2.32-5.38,4.28c0,2.87,2.26,4.83,7.21,6.84,5.93,2.38,12.77,5.93,12.77,13.81,0,6.29-5.44,12.1-14.05,12.1-7.7,0-12.22-3.61-13.44-4.77-.55-.55-.85-.85-.31-1.83Z" style="fill:#262625;"/><path d="M454.82,58.45c0-.61,.49-1.16,1.16-1.16h24.87c.67,0,1.16,.55,1.16,1.16v5.01c0,.61-.49,1.16-1.16,1.16h-18.08v10.02h15.09c.61,0,1.16,.55,1.16,1.16v5.07c0,.67-.55,1.16-1.16,1.16h-15.09v10.69h18.08c.67,0,1.16,.55,1.16,1.16v5.01c0,.61-.49,1.16-1.16,1.16h-24.87c-.67,0-1.16-.55-1.16-1.16V58.45Z" style="fill:#262625;"/></g><g><path d="M77.22,68.54c0,1.91,.42,3.68,1.24,5.25,.82,1.57,1.93,2.8,3.3,3.68,2.73,1.75,6.01,1.75,8.77,0,1.39-.88,2.51-2.12,3.33-3.68,.82-1.57,1.24-3.34,1.24-5.25v-25.16c-.3,.17-.59,.35-.86,.58l-15.74,13.74c-.58,.51-1.01,1.15-1.28,1.85v8.99Z" style="fill:#262625;"/><path d="M89.45,102.53c4.16-3.12,9.27-7.58,8.45-7.64-3.56,1.76-7.51,2.7-11.81,2.7-4.66,0-9.01-1.1-12.93-3.26-3.92-2.16-7.07-5.2-9.34-9.04-2.28-3.83-3.43-8.2-3.43-12.99v-28.87c-.32,.18-.62,.39-.89,.64l-14.59,13.64c-.97,.91-1.52,2.17-1.52,3.5v26.39c0,4.55,1.08,8.64,3.25,12.28,2.16,3.64,5.11,6.49,8.83,8.55,3.73,2.05,7.81,3.08,12.24,3.08s8.75-1.05,12.45-3.16c0,0,5.14-2.7,9.31-5.82Z" style="fill:#262625;"/></g></svg>