<svg width="24" height="24" viewBox="0 0 24 24" fill="none" xmlns="http://www.w3.org/2000/svg">
<g clip-path="url(#clip0_755_481)">
<path d="M18.0232 24.0393C16.8302 24.0393 15.6612 23.6963 14.6412 23.0473C14.6382 23.0453 14.6152 23.0303 14.6122 23.0293C9.21921 19.3833 4.63721 14.8003 0.993206 9.40632C-0.612794 6.88232 -0.265794 3.65932 1.83321 1.56032L2.60721 0.78632C3.09721 0.29732 3.74821 0.0283203 4.44221 0.0283203C5.13621 0.0283203 5.78721 0.29732 6.27621 0.78632L9.53821 4.05232C10.5482 5.06432 10.5472 6.70932 9.53621 7.71932C9.11021 8.14632 9.11021 8.84132 9.53721 9.26832C9.53721 9.26832 14.7652 14.4973 14.7692 14.5013C14.9622 14.6933 15.2372 14.8073 15.5292 14.8073C15.8212 14.8073 16.0962 14.6933 16.3022 14.4873C16.7922 13.9983 17.4432 13.7283 18.1372 13.7283C18.8312 13.7283 19.4822 13.9973 19.9722 14.4863L23.2332 17.7463C24.2442 18.7583 24.2442 20.4043 23.2332 21.4153L22.4592 22.1893C21.2662 23.3823 19.6902 24.0393 18.0232 24.0393ZM15.4422 21.7793C16.2402 22.2793 17.1252 22.5363 18.0252 22.5363C19.2922 22.5363 20.4892 22.0363 21.3972 21.1283L22.1712 20.3543C22.5972 19.9273 22.5972 19.2323 22.1712 18.8053L18.9112 15.5463C18.7052 15.3403 18.4302 15.2273 18.1372 15.2273C17.8442 15.2273 17.5692 15.3413 17.3632 15.5473C16.8742 16.0363 16.2222 16.3063 15.5292 16.3063C14.8402 16.3063 14.1922 16.0403 13.7052 15.5563L8.47721 10.3273C7.46621 9.31532 7.46621 7.66932 8.47721 6.65832C8.90121 6.23332 8.90321 5.54032 8.47821 5.11332C8.47321 5.10832 8.45621 5.09032 8.45121 5.08532L5.21521 1.84632C5.00921 1.64132 4.73421 1.52832 4.44221 1.52832C4.14921 1.52832 3.87421 1.64232 3.66721 1.84832L2.89321 2.62132C1.29621 4.21832 1.02721 6.66632 2.24021 8.57232C5.77021 13.7973 10.2132 18.2433 15.4422 21.7793Z" fill="black"/>
</g>
<defs>
<clipPath id="clip0_755_481">
<rect width="24" height="24" fill="white"/>
</clipPath>
</defs>
</svg>
