<svg width="24" height="24" viewBox="0 0 24 24" fill="none" xmlns="http://www.w3.org/2000/svg">
<path d="M2.25 20.25C1.009 20.25 0 19.241 0 18V6C0 5.463 0.195 4.941 0.548 4.532C0.561 4.516 0.579 4.495 0.599 4.476C1.025 4.015 1.626 3.75 2.25 3.75H21.75C22.375 3.75 22.976 4.015 23.402 4.477C23.42 4.495 23.437 4.514 23.453 4.534C23.804 4.938 24 5.461 24 6V18C24 19.241 22.991 20.25 21.75 20.25H2.25ZM1.5 18C1.5 18.414 1.836 18.75 2.25 18.75H21.75C22.164 18.75 22.5 18.414 22.5 18V6.187L16.884 10.06L20.009 12.949C20.313 13.23 20.331 13.705 20.051 14.009C19.909 14.162 19.708 14.25 19.5 14.25C19.311 14.25 19.13 14.179 18.991 14.051L15.618 10.933L13.793 12.192C13.267 12.556 12.647 12.748 12 12.748C11.354 12.748 10.734 12.556 10.207 12.192L8.382 10.934L5.009 14.052C4.87 14.179 4.689 14.25 4.5 14.25C4.292 14.25 4.091 14.162 3.949 14.01C3.668 13.706 3.687 13.23 3.99 12.95L7.115 10.061L1.5 6.187V18ZM11.059 10.957C11.335 11.148 11.66 11.248 12 11.248C12.34 11.248 12.665 11.147 12.941 10.957L21.217 5.25H2.783L11.059 10.957Z" fill="black"/>
</svg>
