<svg width="24" height="24" viewBox="0 0 24 24" fill="none" xmlns="http://www.w3.org/2000/svg">
<g clip-path="url(#clip0_755_484)">
<path d="M5.25 24C5.134 24 5.018 23.973 4.914 23.921C4.659 23.793 4.5 23.536 4.5 23.25V19.5H2.25C1.009 19.5 0 18.491 0 17.25V2.25C0 1.009 1.009 0 2.25 0H21.75C22.991 0 24 1.009 24 2.25V17.25C24 18.491 22.991 19.5 21.75 19.5H11.5L5.7 23.85C5.571 23.947 5.411 24 5.25 24ZM2.25 1.5C1.836 1.5 1.5 1.836 1.5 2.25V17.25C1.5 17.664 1.836 18 2.25 18H5.25C5.664 18 6 18.336 6 18.75V21.75L10.8 18.15C10.929 18.053 11.089 18 11.25 18H21.75C22.164 18 22.5 17.664 22.5 17.25V2.25C22.5 1.836 22.164 1.5 21.75 1.5H2.25Z" fill="black"/>
<path d="M5.25 8.25C4.836 8.25 4.5 7.914 4.5 7.5C4.5 7.086 4.836 6.75 5.25 6.75H18.75C19.164 6.75 19.5 7.086 19.5 7.5C19.5 7.914 19.164 8.25 18.75 8.25H5.25Z" fill="black"/>
<path d="M5.25 12.75C4.836 12.75 4.5 12.414 4.5 12C4.5 11.586 4.836 11.25 5.25 11.25H15.75C16.164 11.25 16.5 11.586 16.5 12C16.5 12.414 16.164 12.75 15.75 12.75H5.25Z" fill="black"/>
</g>
<defs>
<clipPath id="clip0_755_484">
<rect width="24" height="24" fill="white"/>
</clipPath>
</defs>
</svg>
