<svg width="512" height="67" viewBox="0 0 512 67" fill="none" xmlns="http://www.w3.org/2000/svg">
<path d="M23.9086 64.6229L13.1363 24.4294C9.79741 11.9961 6.53161 4.71271 0 2.50562H30.4402C27.6131 3.56012 26.5651 6.23314 26.5651 10.1323C26.5651 13.5901 27.4425 18.2986 29.0267 24.3313L36.1676 51.037L44.9901 18.274C42.6992 9.6664 40.92 4.34486 35.5583 2.4811H64.853C61.5872 3.73178 60.3443 6.8217 60.3443 11.5302C60.3443 14.8163 60.9535 19.1569 62.294 24.4048L68.8987 50.5956L74.0168 31.5901C75.4303 26.3422 76.0396 21.2168 76.0396 17.1214C76.0396 9.22498 73.8462 3.90344 70.3123 2.4811H90.7845C84.4235 4.71271 79.5735 15.6255 75.2597 31.5901L66.2666 64.5984H56.6398L45.4288 20.7509L33.706 64.5984H23.9086V64.6229Z" fill="#2A2727"/>
<path d="M77.4539 55.1323C77.4539 44.5628 90.5171 44.1214 97.1218 39.4129C95.2696 40.026 93.2467 40.2957 91.1995 40.2957C85.2041 40.2957 79.5499 37.3775 79.5499 32.5709C79.5499 25.5573 88.7136 20.5055 99.6565 20.5055C115.985 20.5055 120.031 28.1322 120.031 36.2985V44.1214C120.031 48.5601 120.031 60.7236 124.711 60.7236C126.563 60.7236 127.611 59.2031 128.074 58.1486C127.538 60.5519 124.467 66.0451 117.228 66.0451C108.577 66.0451 106.286 59.6445 106.017 52.9007C104.165 60.3557 98.3404 66.0451 90.4927 66.0451C82.6451 66.0451 77.4295 61.7045 77.4295 55.1323H77.4539ZM103.483 28.3284C103.483 24.8706 101.801 21.4864 98.3648 21.4864C93.0761 21.4864 89.7128 27.6908 89.7128 32.7671C89.7128 36.2249 91.297 39.0696 94.7334 39.0696C99.6808 39.0696 103.458 33.748 103.458 28.3284H103.483ZM106.042 43.2385V29.0396C103.58 38.5301 92.1013 40.4919 92.1013 51.4047C92.1013 57.0941 94.8309 60.2822 97.8286 60.2822C101.704 60.2822 106.042 55.2304 106.042 43.2385Z" fill="#2A2727"/>
<path d="M125.807 64.6229C131.9 62.4158 133.314 56.1133 133.314 43.7536V28.9416C133.314 16.5083 131.729 11.5546 125.807 11.2849C134.459 9.69088 142.136 6.57643 147.23 0.813477V43.7781C147.23 56.1133 148.643 62.4158 154.736 64.6474H125.807V64.6229Z" fill="#2A2727"/>
<path d="M170.261 23.0072V47.7756C170.261 54.7892 170.261 60.6503 174.941 60.6503C176.793 60.6503 177.768 59.4977 178.304 58.4432C177.695 60.8465 174.599 66.0699 167.458 66.0699C158.904 66.0699 156.345 59.326 156.345 52.6557V23.0072H149.813C158.027 21.0453 167.459 12.266 170.286 8.19515V21.9527H179.279V23.0072H170.261Z" fill="#2A2727"/>
<path d="M176.085 43.3365C176.085 28.5981 185.883 20.5299 199.189 20.5299C212.496 20.5299 221.587 27.8869 222.294 40.0504C220.271 39.7071 215.762 39.4373 212.764 39.4373C219.028 40.7616 221.319 45.2984 221.319 49.2957C221.319 59.4237 211.619 66.0695 200.676 66.0695C185.493 66.0695 176.061 58.0014 176.061 43.3365H176.085ZM207.232 38.7997C206.891 28.5 203.869 21.5844 199.214 21.5844C194.559 21.5844 191.269 29.3093 191.269 40.5899C191.269 43.1649 191.439 45.47 191.707 47.6036C193.121 43.876 198.312 39.609 207.232 38.8243V38.7997ZM220.198 49.0995C220.198 44.1213 216.323 39.5109 208.378 39.5109C202.821 39.5109 193.462 42.797 193.462 51.4047C193.462 56.8243 197.776 61.0913 205.112 61.0913C214.982 61.0913 220.198 54.887 220.198 49.0995Z" fill="#2A2727"/>
<path d="M220.904 64.6228C226.997 62.4157 228.411 55.2059 228.411 46.2549C228.411 35.9552 226.461 29.6527 220.904 29.6527C229.629 27.6909 237.038 24.0614 241.888 18.8135V35.1459C243.302 24.7726 248.688 20.5056 254.415 20.5056C260.142 20.5056 263.335 23.9633 263.335 28.8435C263.335 33.7236 259.972 36.838 255.487 36.838C251.003 36.838 247.981 33.9933 247.981 31.3448C247.981 28.3285 250.637 28.0587 250.637 26.1949C250.637 25.3121 250.101 24.6009 248.956 24.6009C245.081 24.6009 241.888 34.1895 241.888 43.68C241.888 56.1133 243.302 62.4157 249.395 64.6228H220.904Z" fill="#2A2727"/>
<path d="M280.786 33.3066C280.786 11.1131 297.895 1.08312 314.298 1.08312C324.704 1.08312 330.261 4.46733 335.111 4.46733C337.231 4.46733 339.084 3.92781 341.106 2.06405V31.0014C337.499 15.3802 329.627 2.87332 318.075 2.87332C307.303 2.87332 299.65 14.5954 299.65 31.2712C299.65 49.9088 309.082 59.8407 321 59.8407C331.333 59.8407 339.522 51.9443 343.933 45.2739C341.033 54.1513 331.309 65.947 313.859 65.947C295.507 65.947 280.786 53.0723 280.786 33.2821V33.3066Z" fill="#2A2727"/>
<path d="M346.078 43.2385C346.078 28.7698 355.777 20.5055 369.889 20.5055C384 20.5055 393.87 28.7698 393.87 43.2385C393.87 57.7072 384.171 66.0451 369.889 66.0451C355.607 66.0451 346.078 58.0505 346.078 43.2385ZM378.102 43.2385C378.102 29.3829 375.007 21.5845 369.889 21.5845C364.771 21.5845 361.773 29.4074 361.773 43.2385C361.773 57.0696 364.941 64.9906 369.889 64.9906C374.836 64.9906 378.102 57.1922 378.102 43.2385Z" fill="#2A2727"/>
<path d="M397.769 43.2385C397.769 28.7698 407.469 20.5055 421.58 20.5055C435.692 20.5055 445.562 28.7698 445.562 43.2385C445.562 57.7072 435.862 66.0451 421.58 66.0451C407.299 66.0451 397.769 58.0505 397.769 43.2385ZM429.794 43.2385C429.794 29.3829 426.699 21.5845 421.58 21.5845C416.462 21.5845 413.465 29.4074 413.465 43.2385C413.465 57.0696 416.633 64.9906 421.58 64.9906C426.528 64.9906 429.794 57.1922 429.794 43.2385Z" fill="#2A2727"/>
<path d="M463.769 23.0072V47.7756C463.769 54.7892 463.769 60.6503 468.449 60.6503C470.301 60.6503 471.276 59.4977 471.812 58.4432C471.203 60.8465 468.107 66.0699 460.966 66.0699C452.412 66.0699 449.853 59.326 449.853 52.6557V23.0072H443.321C451.535 21.0453 460.966 12.266 463.794 8.19515V21.9527H472.787V23.0072H463.769Z" fill="#2A2727"/>
<path d="M473.103 56.1131C473.103 51.6744 477.782 48.1186 486.239 48.045C479.708 46.1812 473.176 42.8951 473.176 34.9005C473.176 24.8706 482.608 20.5299 490.821 20.5299C495.939 20.5299 500.521 21.9523 503.884 21.9523C505.566 21.9523 506.882 21.5844 507.759 20.5299V36.2493C505.03 29.064 499.302 21.5109 490.821 21.5109C485.264 21.5109 482.973 24.4291 482.973 27.1022C482.973 38.2847 512 28.7943 512 49.639C512 61.8025 500.521 66.0695 491.723 66.0695C481.145 66.0695 473.103 61.9006 473.103 56.1376V56.1131ZM502.227 57.9769C502.227 51.9442 494.915 48.6581 488.652 48.6581C483.973 48.6581 479.927 51.5028 479.927 56.3829C479.927 61.7044 485.581 64.9905 491.918 64.9905C497.743 64.9905 502.227 62.6853 502.227 57.9769Z" fill="#2A2727"/>
</svg>
