<svg viewBox="0 0 1000 1000" xmlns="http://www.w3.org/2000/svg"><path d="m0 0h1000v1000h-1000z" fill="#fff"/><path d="m500 500.09v459.42a457.54 457.54 0 0 0 295.22-107.51z" fill="#7a0e00"/><path d="m500 500.09 295.26 351.91a457.52 457.52 0 0 0 157.07-272.15z"/><path d="m500 500.09 452.44 79.78a457.48 457.48 0 0 0 -54.63-309.46z" fill="#610249"/><path d="m500 500.09 397.82-229.72a457.56 457.56 0 0 0 -240.76-201.94z" fill="#3b1654"/><path d="m500 500.09 157.08-431.72a457.49 457.49 0 0 0 -314.24.06z" fill="#033085"/><path d="m500 500.09-157.19-431.72a457.51 457.51 0 0 0 -240.68 202z" fill="#02453e"/><path d="m500 500.09-397.93-229.71a457.53 457.53 0 0 0 -54.5 309.48z" fill="#154702"/><path d="m500 500.09-452.5 79.78a457.51 457.51 0 0 0 157.18 272.13z" fill="#635000"/><path d="m500 500.09-295.36 351.91a457.45 457.45 0 0 0 295.36 107.44z" fill="#664700"/><path d="m500 500.08v420.31a418.52 418.52 0 0 0 270.08-98.39z" fill="#930900"/><path d="m500 500.08 270.17 322a418.53 418.53 0 0 0 143.69-249z" fill="#222"/><path d="m500 500.08 413.92 73a418.5 418.5 0 0 0 -50-283.11z" fill="#7e0360"/><path d="m500 500.08 364-210.15a418.48 418.48 0 0 0 -220.32-184.75z" fill="#521f74"/><path d="m500 500.08 143.75-395a418.57 418.57 0 0 0 -287.49.06z" fill="#03399c"/><path d="m500 500.08-143.76-395a418.57 418.57 0 0 0 -220.24 184.92z" fill="#02584f"/><path d="m500 500.08-364-210.15a418.51 418.51 0 0 0 -49.91 283.13z" fill="#1c5904"/><path d="m500 500.08-414 72.99a418.58 418.58 0 0 0 143.82 248.93z" fill="#6c5600"/><path d="m500 500.08-270.17 322a418.53 418.53 0 0 0 270.17 98.25z" fill="#774d00"/><path d="m500 500.08v382.77a381.19 381.19 0 0 0 246-89.59z" fill="#ab0700"/><path d="m500 500.08v344.21a342.79 342.79 0 0 0 221.22-80.57z" fill="#c10600"/><path d="m500 500.08v305.8a304.52 304.52 0 0 0 196.49-71.58z" fill="#d30400"/><path d="m500 500.08v267.73a266.62 266.62 0 0 0 172-62.67z" fill="#e1201d"/><path d="m500 500.08v229.72a228.75 228.75 0 0 0 147.59-53.8z" fill="#eb4443"/><path d="m500 500.08v191.66a190.81 190.81 0 0 0 123.18-44.86z" fill="#f36b6b"/><path d="m500 500.08v153.16a152.53 152.53 0 0 0 98.44-35.85z" fill="#f59596"/><path d="m500 500.08v114.81a114.36 114.36 0 0 0 73.74-26.89z" fill="#fdbdbd"/><path d="m500 500.08v76.53a76.24 76.24 0 0 0 49.19-17.91z" fill="#fed1d1"/><path d="m500 500.08v38.23a38.08 38.08 0 0 0 24.57-8.95z" fill="#f6f3e9"/><path d="m500 500.08v38.23a38.08 38.08 0 0 0 24.57-8.95z" fill="#f8e6e6"/><path d="m500 500.08 246 293.22a381.12 381.12 0 0 0 130.85-226.76z" fill="#484848"/><path d="m500 500.08 221.2 263.68a342.78 342.78 0 0 0 117.68-203.92z" fill="#5f5f5f"/><path d="m500 500.08 196.52 234.26a304.58 304.58 0 0 0 104.54-181.17z" fill="#919193"/><path d="m500 500.08 172.1 205.09a266.62 266.62 0 0 0 91.53-158.61z" fill="#bcbcbc"/><path d="m500 500.08 147.66 176a228.7 228.7 0 0 0 78.48-136.08z" fill="#ddd"/><path d="m500 500.08 123.15 146.82a190.86 190.86 0 0 0 65.53-113.54z" fill="#e3e3e3"/><path d="m500 500.08 98.4 117.33a152.5 152.5 0 0 0 52.36-90.74z" fill="#f0f0f0"/><path d="m500 500.08 73.75 87.92a114.29 114.29 0 0 0 39.25-68z" fill="#f5f5f5"/><path d="m500 500.08 49.2 58.63a76.21 76.21 0 0 0 26.16-45.34z" fill="#fcfcfc"/><path d="m500 500.08 24.57 29.28a38 38 0 0 0 13.07-22.64z" fill="#fff"/><path d="m500 500.08 377 66.47a381.13 381.13 0 0 0 -45.52-257.83z" fill="#990476"/><path d="m500 500.08 339 59.77a342.78 342.78 0 0 0 -41-231.85z" fill="#b2078c"/><path d="m500 500.08 301.16 53.1a304.56 304.56 0 0 0 -36.37-206z" fill="#c70da1"/><path d="m500 500.08 263.67 46.49a266.7 266.7 0 0 0 -31.84-180.34z" fill="#d715b5"/><path d="m500 500.08 226.18 39.92a228.74 228.74 0 0 0 -27.32-154.73z" fill="#e323c9"/><path d="m500 500.08 188.7 33.28a190.8 190.8 0 0 0 -22.79-129.1z" fill="#ed39dc"/><path d="m500 500.08 150.84 26.6a152.53 152.53 0 0 0 -18.22-103.17z" fill="#f35bed"/><path d="m500 500.08 113 19.92a114.36 114.36 0 0 0 -13.65-77.34z" fill="#f592f7"/><path d="m500 500.08 75.37 13.29a76.13 76.13 0 0 0 -9.1-51.55z" fill="#f6c0f9"/><path d="m500 500.08 37.65 6.64a38.1 38.1 0 0 0 -4.6-25.72z" fill="#f4e8fa"/><path d="m500 500.08 331.44-191.39a381.21 381.21 0 0 0 -200.59-168.25z" fill="#60258a"/><path d="m500 500.08 298-172.08a342.75 342.75 0 0 0 -180.38-151.3z" fill="#672893"/><path d="m500 500.08 264.83-152.9a304.51 304.51 0 0 0 -160.3-134.42z" fill="#873bc6"/><path d="m500 500.08 231.81-133.87a266.59 266.59 0 0 0 -140.3-117.68z" fill="#9246d8"/><path d="m500 500.08 198.89-114.86a228.74 228.74 0 0 0 -120.38-101z" fill="#9b54e6"/><path d="m500 500.08 166-95.83a190.85 190.85 0 0 0 -100.51-84.25z" fill="#a467f0"/><path d="m500 500.08 132.59-76.58a152.44 152.44 0 0 0 -80.26-67.32z" fill="#b082f7"/><path d="m500 500.08 99.43-57.41a114.33 114.33 0 0 0 -60.17-50.46z" fill="#c7adfc"/><path d="m500 500.08 66.28-38.27a76.23 76.23 0 0 0 -40.11-33.64z" fill="#ddcffe"/><path d="m500 500.08 33.06-19.08a38.08 38.08 0 0 0 -20-16.81z" fill="#e7e7f9"/><path d="m500 500.08 130.87-359.69a381.2 381.2 0 0 0 -261.82.05z" fill="#0544b2"/><path d="m500 500.08 117.68-323.45a342.81 342.81 0 0 0 -235.44.05z" fill="#0850c6"/><path d="m500 500.08 104.54-287.36a304.53 304.53 0 0 0 -209.16 0z" fill="#0d5dd6"/><path d="m500 500.08 91.57-251.59a266.67 266.67 0 0 0 -183.13 0z" fill="#166de3"/><path d="m500 500.08 78.57-215.86a228.74 228.74 0 0 0 -157.12 0z" fill="#2380ed"/><path d="m500 500.08 65.5-180.08a190.88 190.88 0 0 0 -131.09 0z" fill="#1aa0e2"/><path d="m500 500.08 52.39-143.92a152.48 152.48 0 0 0 -104.77 0z" fill="#21bbfd"/><path d="m500 500.08 39.27-107.89a114.32 114.32 0 0 0 -78.53 0z" fill="#8ed3fd"/><path d="m500 500.08 26.18-71.92a76.2 76.2 0 0 0 -52.35 0z" fill="#aad6f3"/><path d="m500 500.08 13-35.92a38.09 38.09 0 0 0 -26.15 0z" fill="#fcfeff"/><path d="m500 500.08-131-359.69a381.15 381.15 0 0 0 -200.49 168.33z" fill="#035d53"/><path d="m500 500.08-117.77-323.45a342.85 342.85 0 0 0 -180.33 151.37z" fill="#04655a"/><path d="m500 500.08-104.64-287.36a304.56 304.56 0 0 0 -160.2 134.48z" fill="#077163"/><path d="m500 500.08-91.62-251.59a266.67 266.67 0 0 0 -140.26 117.74z" fill="#0c8070"/><path d="m500 500.08-78.62-215.86a228.77 228.77 0 0 0 -120.38 101.02z" fill="#169480"/><path d="m500 500.08-65.6-180.08a190.82 190.82 0 0 0 -100.4 84.26z" fill="#28ad95"/><path d="m500 500.08-52.43-143.92a152.5 152.5 0 0 0 -80.24 67.35z" fill="#47c8ae"/><path d="m500 500.08-39.32-107.89a114.37 114.37 0 0 0 -60.14 50.49z" fill="#80e5cd"/><path d="m500 500.08-26.17-71.92a76.22 76.22 0 0 0 -40.1 33.66z" fill="#b1f2e1"/><path d="m500 500.08-13.07-35.92a38.09 38.09 0 0 0 -20 16.81z" fill="#e6fff8"/><path d="m500 500.08-331.54-191.39a381.22 381.22 0 0 0 -45.41 257.85z" fill="#216008"/><path d="m500 500.08-298.14-172.08a342.75 342.75 0 0 0 -40.86 231.84z" fill="#497d24"/><path d="m500 500.08-264.88-152.9a304.53 304.53 0 0 0 -36.28 206z" fill="#5b8f38"/><path d="m500 500.08-231.91-133.87a266.58 266.58 0 0 0 -31.76 180.36z" fill="#66a13f"/><path d="m500 500.08-199-114.86a228.78 228.78 0 0 0 -27.24 154.78z" fill="#8ab540"/><path d="m500 500.08-166-95.83a190.82 190.82 0 0 0 -22.74 129.11z" fill="#a2d14d"/><path d="m500 500.08-132.69-76.58a152.51 152.51 0 0 0 -18.17 103.17z" fill="#aadb51"/><path d="m500 500.08-99.43-57.41a114.33 114.33 0 0 0 -13.67 77.33z" fill="#cdeb9b"/><path d="m500 500.08-66.28-38.27a76.24 76.24 0 0 0 -9.08 51.56z" fill="#d8f4aa"/><path d="m500 500.08-33.15-19.08a38.06 38.06 0 0 0 -4.54 25.75z" fill="#ebf1f0"/><path d="m500 500.08-377 66.47a381.2 381.2 0 0 0 131 226.71z" fill="#705901"/><path d="m500 500.08-339 59.77a342.75 342.75 0 0 0 117.73 203.87z" fill="#785f02"/><path d="m500 500.08-301.2 53.1a304.47 304.47 0 0 0 104.62 181.12z" fill="#826605"/><path d="m500 500.08-263.71 46.49a266.61 266.61 0 0 0 91.59 158.57z" fill="#8f700a"/><path d="m500 500.08-226.27 39.92a228.72 228.72 0 0 0 78.59 136z" fill="#a17e13"/><path d="m500 500.08-188.8 33.28a190.89 190.89 0 0 0 65.57 113.52z" fill="#b69023"/><path d="m500 500.08-150.83 26.6a152.47 152.47 0 0 0 52.4 90.71z" fill="#cfa63f"/><path d="m500 500.08-113.12 19.92a114.35 114.35 0 0 0 39.28 68z" fill="#e8c371"/><path d="m500 500.08-75.37 13.29a76.21 76.21 0 0 0 26.18 45.33z" fill="#f8d78c"/><path d="m500 500.08-37.64 6.64a38.06 38.06 0 0 0 13.07 22.64z" fill="#f6f3e9"/><path d="m500 500.08-246 293.22a381.2 381.2 0 0 0 246 89.5z" fill="#7f4d02"/><path d="m500 500.08-221.3 263.68a342.73 342.73 0 0 0 221.3 80.47z" fill="#8e4f04"/><path d="m500 500.08-196.61 234.26a304.56 304.56 0 0 0 196.61 71.5z" fill="#a2540a"/><path d="m500 500.08-172.14 205.09a266.57 266.57 0 0 0 172.14 62.6z" fill="#b95d14"/><path d="m500 500.08-147.66 176a228.77 228.77 0 0 0 147.66 53.68z" fill="#d16924"/><path d="m500 500.08-123.25 146.82a190.85 190.85 0 0 0 123.25 44.82z" fill="#e47c3f"/><path d="m500 500.08-98.5 117.33a152.49 152.49 0 0 0 98.5 35.81z" fill="#f39766"/><path d="m500 500.08-73.85 87.92a114.32 114.32 0 0 0 73.85 26.87z" fill="#fbbb9b"/><path d="m500 500.08-49.19 58.63a76.2 76.2 0 0 0 49.19 17.89z" fill="#fdd0ba"/><path d="m500 500.08-24.57 29.28a38.06 38.06 0 0 0 24.57 8.94z" fill="#f8ede6"/><path d="m500 156.55a342.35 342.35 0 1 1 -133.72 27 341.43 341.43 0 0 1 133.72-27m0-.5c-190 0-344 154-344 344s154 344 344 344 344-154 344-344-154-344-344-344z" fill="#fff"/><path d="m500 194.77a304.31 304.31 0 1 1 -118.84 24 303.39 303.39 0 0 1 118.84-24m0-.5c-168.89 0-305.81 136.92-305.81 305.81s136.87 305.81 305.81 305.81 305.76-136.89 305.76-305.81-136.92-305.81-305.76-305.81z" fill="#fff"/><path d="m500 233a266.27 266.27 0 1 1 -104 21 265.35 265.35 0 0 1 104-21m0-.5c-147.78 0-267.58 119.8-267.58 267.58s119.75 267.58 267.58 267.58 267.58-119.8 267.58-267.58-119.85-267.58-267.58-267.58z" fill="#fff"/><path d="m500 271.22a228.18 228.18 0 1 1 -89.08 18 227.46 227.46 0 0 1 89.08-18m0-.5c-126.67 0-229.35 102.69-229.35 229.36s102.63 229.36 229.35 229.36 229.31-102.69 229.31-229.36-102.69-229.36-229.31-229.36z" fill="#fff"/><path d="m500 309.45a190 190 0 1 1 -74.2 15 189.41 189.41 0 0 1 74.2-15m0-.5c-105.56 0-191.13 85.57-191.13 191.13s85.52 191.13 191.13 191.13 191.13-85.57 191.13-191.13-85.62-191.08-191.13-191.08z" fill="#fff"/><path d="m500 347.68a152.39 152.39 0 1 1 -107.76 44.63 151.44 151.44 0 0 1 107.76-44.63m0-.5a152.9 152.9 0 1 0 152.91 152.9 152.9 152.9 0 0 0 -152.91-152.9z" fill="#fff"/><path d="m500 385.9a114.19 114.19 0 1 1 -80.73 33.44 113.46 113.46 0 0 1 80.73-33.44m0-.5a114.68 114.68 0 1 0 114.63 114.68 114.69 114.69 0 0 0 -114.63-114.68z" fill="#fff"/><path d="m500 424.13a75.95 75.95 0 1 1 -76 75.95 76 76 0 0 1 76-75.95m0-.5a76.45 76.45 0 1 0 76.45 76.45 76.45 76.45 0 0 0 -76.45-76.45z" fill="#fff"/><path d="m500 462.35a37.73 37.73 0 1 1 -37.72 37.73 37.78 37.78 0 0 1 37.72-37.73m0-.5a38.23 38.23 0 1 0 38.23 38.23 38.23 38.23 0 0 0 -38.23-38.23z" fill="#fff"/><path d="m500 118.32a380.5 380.5 0 1 1 -148.6 30 379.33 379.33 0 0 1 148.6-30m0-.5c-211.11 0-382.26 171.14-382.26 382.26s171.1 382.26 382.26 382.26 382.21-171.14 382.21-382.26-171.14-382.26-382.21-382.26z" fill="#fff"/><path d="m500 118.32a380.5 380.5 0 1 1 -148.6 30 379.33 379.33 0 0 1 148.6-30m0-.5c-211.11 0-382.26 171.14-382.26 382.26s171.1 382.26 382.26 382.26 382.21-171.14 382.21-382.26-171.14-382.26-382.21-382.26z" fill="#fff"/><path d="m500 80.27a419.92 419.92 0 0 1 163.36 806.63 419.92 419.92 0 0 1 -326.82-773.64 417.23 417.23 0 0 1 163.46-32.99m0-.5c-232.18 0-420.36 188.23-420.36 420.31s188.18 420.31 420.36 420.31 420.27-188.18 420.27-420.31-188.19-420.31-420.27-420.31z" fill="#fff"/><path d="m500 41.15a459.06 459.06 0 0 1 178.59 881.85 459.05 459.05 0 0 1 -357.28-845.79 456.11 456.11 0 0 1 178.69-36.06m0-.5c-253.74 0-459.43 205.69-459.43 459.43s205.64 459.43 459.43 459.43 459.38-205.69 459.38-459.43-205.69-459.43-459.38-459.43z" fill="#fff"/><path d="m499.95 500.18v458.84" fill="none" stroke="#fff" stroke-miterlimit="10" stroke-width=".5"/><path d="m499.95 500.18 294.98 351.55" fill="none" stroke="#fff" stroke-miterlimit="10" stroke-width=".5"/><path d="m499.95 500.18 451.92 79.69" fill="none" stroke="#fff" stroke-miterlimit="10" stroke-width=".5"/><path d="m499.95 500.18 397.44-229.47" fill="none" stroke="#fff" stroke-miterlimit="10" stroke-width=".5"/><path d="m499.95 500.18 157.02-431.43" fill="none" stroke="#fff" stroke-miterlimit="10" stroke-width=".5"/><path d="m499.95 500.18-157.03-431.43" fill="none" stroke="#fff" stroke-miterlimit="10" stroke-width=".5"/><path d="m499.95 500.18-397.56-229.53" fill="none" stroke="#fff" stroke-miterlimit="10" stroke-width=".5"/><path d="m499.95 500.18-451.87 79.68" fill="none" stroke="#fff" stroke-miterlimit="10" stroke-width=".5"/><path d="m499.95 500.18-294.99 351.55" fill="none" stroke="#fff" stroke-miterlimit="10" stroke-width=".5"/><text fill="#fff" font-family="Helvetica" font-size="10.47" transform="translate(494.47 65.38)"><tspan letter-spacing="-.06em">1<tspan letter-spacing="0em" x="5.22" y="0">2</tspan></tspan><tspan letter-spacing="-.1em"><tspan x=".22" y="37.79">1</tspan><tspan letter-spacing="0em" x="5" y="37.79">1</tspan></tspan><tspan letter-spacing="-.05em" x="-.06" y="75.58">1</tspan><tspan x="5.28" y="75.58">0</tspan><tspan x="2.61" y="113.37">9</tspan><tspan x="2.61" y="151.16">8</tspan><tspan x="2.61" y="188.95">7</tspan><tspan fill="#000"><tspan x="2.61" y="226.74">6</tspan><tspan x="2.61" y="264.53">5</tspan><tspan x="2.61" y="302.32">4</tspan><tspan x="2.61" y="340.11">3</tspan><tspan x="2.61" y="377.9">2</tspan><tspan x="2.61" y="415.69">1</tspan></tspan></text><text fill="#fff" font-family="Helvetica" font-size="10.47" transform="matrix(.77 .64 -.64 .77 775.24 163.54)"><tspan letter-spacing="-.06em">1<tspan letter-spacing="0em" x="5.22" y="0">2</tspan></tspan><tspan letter-spacing="-.1em"><tspan x=".22" y="37.79">1</tspan><tspan letter-spacing="0em" x="5" y="37.79">1</tspan></tspan><tspan letter-spacing="-.05em" x="-.06" y="75.58">1</tspan><tspan x="5.28" y="75.58">0</tspan><tspan x="2.61" y="113.37">9</tspan><tspan x="2.61" y="151.16">8</tspan><tspan x="2.61" y="188.95">7</tspan><tspan fill="#000"><tspan x="2.61" y="226.74">6</tspan><tspan x="2.61" y="264.53">5</tspan><tspan x="2.61" y="302.32">4</tspan><tspan x="2.61" y="340.11">3</tspan><tspan x="2.61" y="377.9">2</tspan><tspan x="2.61" y="415.69">1</tspan></tspan></text><text fill="#fff" font-family="Helvetica" font-size="10.47" transform="matrix(.17382006 .98477743 -.98477743 .17382006 927.22 419.21)"><tspan letter-spacing="-.06em">1<tspan letter-spacing="0em" x="5.22" y="0">2</tspan></tspan><tspan letter-spacing="-.1em"><tspan x=".22" y="37.79">1</tspan><tspan letter-spacing="0em" x="5" y="37.79">1</tspan></tspan><tspan letter-spacing="-.05em" x="-.06" y="75.58">1</tspan><tspan x="5.28" y="75.58">0</tspan><tspan x="2.61" y="113.37">9</tspan><tspan x="2.61" y="151.16">8</tspan><tspan x="2.61" y="188.95">7</tspan><tspan fill="#000"><tspan x="2.61" y="226.74">6</tspan><tspan x="2.61" y="264.53">5</tspan><tspan x="2.61" y="302.32">4</tspan><tspan x="2.61" y="340.11">3</tspan><tspan x="2.61" y="377.9">2</tspan><tspan x="2.61" y="415.69">1</tspan></tspan></text><text font-family="Helvetica" font-size="10.47" transform="matrix(.49984884 -.86611266 .86611266 .49984884 519.62 514.99)">1<tspan x="0" y="37.79">2</tspan><tspan x="0" y="75.58">3</tspan><tspan x="0" y="113.37">4</tspan><tspan x="0" y="151.16">5</tspan><tspan x="0" y="188.95">6</tspan><tspan fill="#fff"><tspan x="0" y="226.74">7</tspan><tspan x="0" y="264.53">8</tspan><tspan x="0" y="302.32">9</tspan><tspan letter-spacing="-.05em" x="-2.67" y="340.11">1</tspan><tspan x="2.67" y="340.11">0</tspan></tspan><tspan fill="#fff" letter-spacing="-.1em"><tspan x="-2.39" y="377.9">1</tspan><tspan letter-spacing="0em" x="2.39" y="377.9">1</tspan></tspan><tspan fill="#fff" letter-spacing="-.06em"><tspan x="-2.61" y="415.69">1</tspan><tspan letter-spacing="0em" x="2.61" y="415.69">2</tspan></tspan></text><text font-family="Helvetica" font-size="10.47" transform="matrix(.94 -.34 .34 .94 505.57 524.12)">1<tspan x="0" y="37.79">2</tspan><tspan x="0" y="75.58">3</tspan><tspan x="0" y="113.37">4</tspan><tspan x="0" y="151.16">5</tspan><tspan x="0" y="188.95">6</tspan><tspan fill="#fff"><tspan x="0" y="226.74">7</tspan><tspan x="0" y="264.53">8</tspan><tspan x="0" y="302.32">9</tspan><tspan letter-spacing="-.05em" x="-2.67" y="340.11">1</tspan><tspan x="2.67" y="340.11">0</tspan></tspan><tspan fill="#fff" letter-spacing="-.1em"><tspan x="-2.39" y="377.9">1</tspan><tspan letter-spacing="0em" x="2.39" y="377.9">1</tspan></tspan><tspan fill="#fff" letter-spacing="-.06em"><tspan x="-2.61" y="415.69">1</tspan><tspan letter-spacing="0em" x="2.61" y="415.69">2</tspan></tspan></text><text font-family="Helvetica" font-size="10.47" transform="matrix(.93981195 .34169211 -.34169211 .93981195 488.77 522.09)">1<tspan x="0" y="37.79">2</tspan><tspan x="0" y="75.58">3</tspan><tspan x="0" y="113.37">4</tspan><tspan x="0" y="151.16">5</tspan><tspan x="0" y="188.95">6</tspan><tspan fill="#fff"><tspan x="0" y="226.74">7</tspan><tspan x="0" y="264.53">8</tspan><tspan x="0" y="302.32">9</tspan><tspan letter-spacing="-.05em" x="-2.67" y="340.11">1</tspan><tspan x="2.67" y="340.11">0</tspan></tspan><tspan fill="#fff" letter-spacing="-.1em"><tspan x="-2.39" y="377.9">1</tspan><tspan letter-spacing="0em" x="2.39" y="377.9">1</tspan></tspan><tspan fill="#fff" letter-spacing="-.06em"><tspan x="-2.61" y="415.69">1</tspan><tspan letter-spacing="0em" x="2.61" y="415.69">2</tspan></tspan></text><text font-family="Helvetica" font-size="10.47" transform="matrix(.5 .87 -.87 .5 477.37 509.81)">1<tspan x="0" y="37.79">2</tspan><tspan x="0" y="75.58">3</tspan><tspan x="0" y="113.37">4</tspan><tspan x="0" y="151.16">5</tspan><tspan x="0" y="188.95">6</tspan><tspan fill="#fff"><tspan x="0" y="226.74">7</tspan><tspan x="0" y="264.53">8</tspan><tspan x="0" y="302.32">9</tspan><tspan letter-spacing="-.05em" x="-2.67" y="340.11">1</tspan><tspan x="2.67" y="340.11">0</tspan></tspan><tspan fill="#fff" letter-spacing="-.1em"><tspan x="-2.39" y="377.9">1</tspan><tspan letter-spacing="0em" x="2.39" y="377.9">1</tspan></tspan><tspan fill="#fff" letter-spacing="-.06em"><tspan x="-2.61" y="415.69">1</tspan><tspan letter-spacing="0em" x="2.61" y="415.69">2</tspan></tspan></text><text fill="#fff" font-family="Helvetica" font-size="10.47" transform="matrix(.17313251 -.98489854 .98489854 .17313251 70.75 430.33)"><tspan letter-spacing="-.06em">1<tspan letter-spacing="0em" x="5.22" y="0">2</tspan></tspan><tspan letter-spacing="-.1em"><tspan x=".22" y="37.79">1</tspan><tspan letter-spacing="0em" x="5" y="37.79">1</tspan></tspan><tspan letter-spacing="-.05em" x="-.06" y="75.58">1</tspan><tspan x="5.28" y="75.58">0</tspan><tspan x="2.61" y="113.37">9</tspan><tspan x="2.61" y="151.16">8</tspan><tspan x="2.61" y="188.95">7</tspan><tspan fill="#000"><tspan x="2.61" y="226.74">6</tspan><tspan x="2.61" y="264.53">5</tspan><tspan x="2.61" y="302.32">4</tspan><tspan x="2.61" y="340.11">3</tspan><tspan x="2.61" y="377.9">2</tspan><tspan x="2.61" y="415.69">1</tspan></tspan></text><text fill="#fff" font-family="Helvetica" font-size="10.47" transform="matrix(.77 -.64 .64 .77 216.07 170.81)"><tspan letter-spacing="-.06em">1<tspan letter-spacing="0em" x="5.22" y="0">2</tspan></tspan><tspan letter-spacing="-.1em"><tspan x=".22" y="37.79">1</tspan><tspan letter-spacing="0em" x="5" y="37.79">1</tspan></tspan><tspan letter-spacing="-.05em" x="-.06" y="75.58">1</tspan><tspan x="5.28" y="75.58">0</tspan><tspan x="2.61" y="113.37">9</tspan><tspan x="2.61" y="151.16">8</tspan><tspan x="2.61" y="188.95">7</tspan><tspan fill="#000"><tspan x="2.61" y="226.74">6</tspan><tspan x="2.61" y="264.53">5</tspan><tspan x="2.61" y="302.32">4</tspan><tspan x="2.61" y="340.11">3</tspan><tspan x="2.61" y="377.9">2</tspan><tspan x="2.61" y="415.69">1</tspan></tspan></text><g fill="#333" font-family="Helvetica-Light, Helvetica" font-size="13" font-weight="300"><text transform="matrix(.99924268 -.03891102 .03891102 .99924268 477.22 18.8)">B</text><text transform="matrix(.9999097 -.01343863 .01343863 .9999097 490.14 18.36)">L</text><text transform="matrix(1 .01 -.01 1 501.24 18.25)">U</text><text transform="matrix(1 .04 -.04 1 514.91 18.48)">E</text><text transform="matrix(.80716642 .59032395 -.59032395 .80716642 783.21 110.38)">I</text><text transform="matrix(.79 .61 -.61 .79 789.49 114.99)">N</text><text transform="matrix(.77604641 .63067581 -.63067581 .77604641 800.32 123.37)">D</text><text transform="matrix(.76187756 .64772107 -.64772107 .76187756 810.76 131.95)">I</text><text transform="matrix(.74663818 .66523035 -.66523035 .74663818 816.68 137)">G</text><text transform="matrix(.72645474 .68721431 -.68721431 .72645474 827.3 146.54)">O</text><text transform="matrix(.23 .97 -.97 .23 967.7 384.58)">V</text><text transform="matrix(.21251878 .97715698 -.97715698 .21251878 970.45 396.34)">I</text><text transform="matrix(.18995229 .98179332 -.98179332 .18995229 972.09 403.92)">O</text><text transform="matrix(.16332596 .98657216 -.98657216 .16332596 974.74 418.05)">L</text><text transform="matrix(.13882742 .99031659 -.99031659 .13882742 976.57 429.41)">E</text><text transform="matrix(.11372343 .99351245 -.99351245 .11372343 978.23 441.72)">T</text><text transform="matrix(.57 -.82 .82 .57 900.38 785.89)">N</text><text transform="matrix(.55135469 -.83427094 .83427094 .55135469 908.18 774.62)">E</text><text transform="matrix(.52947515 -.84832544 .84832544 .52947515 914.77 764.58)">U</text><text transform="matrix(.50738797 -.86171773 .86171773 .50738797 921.93 752.96)">T</text><text transform="matrix(.49 -.87 .87 .49 927.74 743.01)">R</text><text transform="matrix(.46190342 -.88693023 .88693023 .46190342 934.09 731.46)">A</text><text transform="matrix(.4394689 -.8982578 .8982578 .4394689 940.01 719.94)">L</text><text transform="matrix(.94865542 -.3163114 .3163114 .94865542 651.37 968.18)">R</text><text transform="matrix(.94016925 -.34070775 .34070775 .94016925 663.65 964.02)">E</text><text transform="matrix(.93086464 -.36536423 .36536423 .93086464 675.02 959.86)">D</text><text transform="matrix(.91 .41 -.41 .91 294.75 947.25)">O</text><text transform="matrix(.92414647 .38203835 -.38203835 .92414647 307.92 953.05)">R</text><text transform="matrix(.93407989 .35706408 -.35706408 .93407989 320.07 958.01)">A</text><text transform="matrix(.94351216 .33133789 -.33133789 .94351216 332.21 962.6)">N</text><text transform="matrix(.9526084 .30419933 -.30419933 .9526084 345.14 967.08)">G</text><text transform="matrix(.96053679 .27815299 -.27815299 .96053679 358.84 971.38)">E</text><text transform="matrix(.43852801 .89871752 -.89871752 .43852801 56.12 712.4)">Y</text><text transform="matrix(.46 .89 -.89 .46 61.54 723.39)">E</text><text transform="matrix(.48221244 .87605431 -.87605431 .48221244 67.15 734.08)">L</text><text transform="matrix(.50271823 .86445034 -.86445034 .50271823 72.75 744.14)">L</text><text transform="matrix(.52 .85 -.85 .52 78.3 753.63)">O</text><text transform="matrix(.55033502 .83494393 -.83494393 .55033502 85.79 765.67)">W</text><text transform="matrix(.12 -.99 .99 .12 21.13 446.42)">G</text><text transform="matrix(.15 -.99 .99 .15 22.94 432.17)">R</text><text transform="matrix(.1751949 -.98453377 .98453377 .1751949 24.93 419.37)">E</text><text transform="matrix(.200052 -.97978528 .97978528 .200052 27.1 407.46)">E</text><text transform="matrix(.2261413 -.97409451 .97409451 .2261413 29.56 395.65)">N</text><text transform="matrix(.74 -.67 .67 .74 173.69 145.59)">T</text><text transform="matrix(.76 -.65 .65 .76 182.26 137.88)">E</text><text transform="matrix(.77417174 -.6329756 .6329756 .77417174 191.76 129.76)">A</text><text transform="matrix(.79 -.61 .61 .79 201.83 121.61)">L</text></g></svg>