<svg xmlns="http://www.w3.org/2000/svg" version="1.1" xmlns:xlink="http://www.w3.org/1999/xlink" xmlns:svgjs="http://svgjs.dev/svgjs" width="1000" height="1000"><g clip-path="url(#SvgjsClipPath1064)"><rect width="1000" height="1000" fill="#ff744d"></rect><g transform="matrix(3.125,0,0,3.125,100,100)"><svg xmlns="http://www.w3.org/2000/svg" version="1.1" xmlns:xlink="http://www.w3.org/1999/xlink" xmlns:svgjs="http://svgjs.dev/svgjs" width="256" height="256"><svg id="Layer_1" xmlns="http://www.w3.org/2000/svg" viewBox="0 0 256 256"><circle cx="128" cy="128" r="128" style="fill:#ff744d;"></circle><path d="M130.19,123.36c-.74-2.03-3.62-2.03-4.36,0l-18.93,52.09c-.55,1.51.57,3.11,2.18,3.11h37.85c1.61,0,2.73-1.6,2.18-3.11l-18.92-52.09ZM229.04,175.45l-18.92-52.09c-.74-2.03-3.62-2.03-4.36,0l-18.92,52.09c-.55,1.51.57,3.11,2.18,3.11h37.84c1.61,0,2.73-1.6,2.18-3.11ZM50.24,123.35c-.74-2.03-3.62-2.03-4.36,0l-18.92,52.09c-.55,1.51.57,3.11,2.18,3.11h37.85c1.61,0,2.73-1.6,2.18-3.11l-18.93-52.09ZM187.22,77.44h-37.85c-1.61,0-2.73,1.6-2.18,3.11l18.93,52.09c.74,2.03,3.62,2.03,4.36,0l18.92-52.09c.55-1.51-.57-3.11-2.18-3.11ZM107.24,77.44h-37.84c-1.61,0-2.73,1.6-2.18,3.11l18.93,52.09c.74,2.03,3.62,2.03,4.36,0l18.91-52.09c.55-1.51-.57-3.11-2.18-3.11Z" style="fill:#fff;"></path></svg></svg></g></g><defs><clipPath id="SvgjsClipPath1064"><rect width="1000" height="1000" x="0" y="0" rx="500" ry="500"></rect></clipPath></defs></svg>